<svg viewBox="0 0 100 100" xmlns="http://www.w3.org/2000/svg" fill-rule="evenodd" clip-rule="evenodd" stroke-linejoin="round" stroke-miterlimit="1.414"><circle cx="50" cy="50" r="50" fill="#8f98a3"/><path d="M44.334 43.491v16.998a.932.932 0 0 1-.944.944h-1.889a.932.932 0 0 1-.944-.944V43.491c0-.532.413-.945.944-.945h1.889c.531 0 .944.413.944.945zm7.555 0v16.998a.933.933 0 0 1-.945.944h-1.888a.933.933 0 0 1-.945-.944V43.491c0-.532.414-.945.945-.945h1.888c.531 0 .945.413.945.945zm7.554 0v16.998a.932.932 0 0 1-.944.944H56.61a.932.932 0 0 1-.944-.944V43.491c0-.532.413-.945.944-.945h1.889c.531 0 .944.413.944.945zm3.778 21.365V36.88H36.779v27.976c0 1.416.797 2.243.944 2.243h24.554c.147 0 .944-.827.944-2.243zM43.39 33.103h13.22l-1.416-3.454c-.089-.117-.354-.294-.501-.324h-9.356c-.177.03-.413.207-.501.324l-1.446 3.454zm27.386.944v1.888a.933.933 0 0 1-.945.945h-2.833v27.976c0 3.246-2.124 6.02-4.721 6.02H37.723c-2.597 0-4.721-2.656-4.721-5.902V36.88h-2.833a.933.933 0 0 1-.945-.945v-1.888c0-.531.414-.944.945-.944h9.119l2.066-4.929c.59-1.446 2.36-2.626 3.924-2.626h9.444c1.564 0 3.334 1.18 3.924 2.626l2.066 4.929h9.119c.531 0 .945.413.945.944z" fill="#fff"/></svg>