<?xml version="1.0" encoding="UTF-8" standalone="no"?><!DOCTYPE svg PUBLIC "-//W3C//DTD SVG 1.1//EN" "http://www.w3.org/Graphics/SVG/1.1/DTD/svg11.dtd"><svg width="100%" height="100%" viewBox="0 0 75 75" version="1.1" xmlns="http://www.w3.org/2000/svg" xmlns:xlink="http://www.w3.org/1999/xlink" xml:space="preserve" style="fill-rule:evenodd;clip-rule:evenodd;stroke-linejoin:round;stroke-miterlimit:1.41421;"><g id="Delete-Entry-Versions"><circle cx="37.5" cy="37.5" r="37.5" style="fill:#8f98a3;"/><g><path d="M45.886,24.402l7.879,0l0,2.957l-2.958,0l0,18.767l0,0l0,3.134c0,2.541 -1.663,4.713 -3.696,4.713l-19.222,0c-2.033,0 -3.696,-2.079 -3.696,-4.621l0,-1.256l0,0l0,-20.737l-2.958,0l0,-2.957l7.879,0c0,0 1.949,-4.65 2.391,-5.704c0.053,-0.128 0.178,-0.211 0.316,-0.211c1.495,0 9.863,0 11.358,0c0.138,0 0.263,0.083 0.316,0.211c0.442,1.054 2.391,5.704 2.391,5.704Zm-13.424,7.392l-1.743,0l0,14.786l1.743,0l0,-14.786Zm5.909,0l-1.742,0l0,14.786l1.742,0l0,-14.786Zm5.91,0l-1.743,0l0,14.786l1.743,0l0,-14.786Zm-0.983,-7.392l-11.596,0l1.033,-2.464l9.53,0l1.033,2.464Z" style="fill:#fff;"/></g></g></svg>